# xmcd
#
# Track frame offsets:
#	150
#	14722
#	30485
#	44962
#	58855
#	77117
#	94430
#	111762
#	128725
#	143425
#	154887
#	173710
#	192172
#
# Disc length: 2701
#
# Revision: 1
# Processed by: cddbd v1.5.1PL0 Copyright (c) Steve Scherf et al.
# Submitted via: VisiTrax 2.9.5.180 - For more info visit www.synapsa.com
# Normalized: r0:DSETVAR1
#
DISCID=b40a8b0d
DTITLE=Various Artist - CDX 158 March 1997
DYEAR=1997
DGENRE=
TTITLE0=Aaron Tippin - A door
TTITLE1=Deana Carter - Count me in
TTITLE2=Victoria Shaw - Different drum
TTITLE3=John Berry - I will if you will
TTITLE4=Kris Tyler - Keeping your kisses
TTITLE5=Lee Ray Parnell - Lucky me, lucky you
TTITLE6=Skip Ewing - Mary go round
TTITLE7=Steve Kolander - My love
TTITLE8=Travis Tritt - She's going home with me
TTITLE9=Blake and Brian - Shut up heart
TTITLE10=Reba McEntire - What if it's you
TTITLE11=Alan jackson - Who's cheatin' who
TTITLE12=Jerry Adams - Southern belle
EXTD=
EXTT0=
EXTT1=
EXTT2=
EXTT3=
EXTT4=
EXTT5=
EXTT6=
EXTT7=
EXTT8=
EXTT9=
EXTT10=
EXTT11=
EXTT12=
PLAYORDER=
